<?xml version="1.0" encoding="UTF-8"?>
<svg id="Layer_1" data-name="Layer 1" xmlns="http://www.w3.org/2000/svg" version="1.1" viewBox="0 0 24 24">
  <defs>
    <style>
      .cls-1 {
        fill: #191919;
        stroke-width: 0px;
      }
    </style>
  </defs>
  <path class="cls-1" d="M18.3,7.1c.4-.4.4-1,0-1.4-.4-.4-1-.4-1.4,0l-4.9,4.9-4.9-4.9c-.4-.4-1-.4-1.4,0-.4.4-.4,1,0,1.4l4.9,4.9-4.9,4.9c-.4.4-.4,1,0,1.4.4.4,1,.4,1.4,0l4.9-4.9,4.9,4.9c.4.4,1,.4,1.4,0,.4-.4.4-1,0-1.4l-4.9-4.9,4.9-4.9Z"/>
</svg>